<svg xmlns="http://www.w3.org/2000/svg" width="824" height="712" viewBox="0 0 824 712">
<rect width="824" height="712" fill="#060912"/>
<text x="16" y="28" fill="#e2e8f0" font-size="18" font-family="monospace">Void Dominion — skirmish (blue p1 vs red p2)</text>
<g transform="translate(12,44)">
<rect width="392" height="208" rx="8" fill="#0b1020" stroke="#26304d"/>
<text x="12" y="22" fill="#cbd5e1" font-size="14" font-family="monospace">t = 0h</text>
<line x1="48" y1="115" x2="133" y2="57.2" stroke="#26304d" stroke-width="2"/>
<line x1="48" y1="115" x2="133" y2="172.79999999999998" stroke="#26304d" stroke-width="2"/>
<line x1="133" y1="57.2" x2="218" y2="115" stroke="#26304d" stroke-width="2"/>
<line x1="133" y1="172.79999999999998" x2="218" y2="115" stroke="#26304d" stroke-width="2"/>
<line x1="218" y1="115" x2="337" y2="172.79999999999998" stroke="#26304d" stroke-width="2"/>
<line x1="218" y1="115" x2="320" y2="57.2" stroke="#26304d" stroke-width="2"/>
<line x1="320" y1="57.2" x2="337" y2="172.79999999999998" stroke="#26304d" stroke-width="2"/>
<circle cx="48" cy="115" r="9" fill="#3b82f6" stroke="#0b1020" stroke-width="2"/>
<text x="48" y="102" fill="#94a3b8" font-size="10" font-family="monospace" text-anchor="middle">HOME</text>
<text x="48" y="135" fill="#64748b" font-size="9" font-family="monospace" text-anchor="middle">empty</text>
<circle cx="133" cy="57.2" r="9" fill="#6b7280" stroke="#0b1020" stroke-width="2"/>
<text x="133" y="44.2" fill="#94a3b8" font-size="10" font-family="monospace" text-anchor="middle">FORGE</text>
<text x="133" y="77.2" fill="#64748b" font-size="9" font-family="monospace" text-anchor="middle">asteroid</text>
<circle cx="133" cy="172.79999999999998" r="9" fill="#6b7280" stroke="#0b1020" stroke-width="2"/>
<text x="133" y="159.79999999999998" fill="#94a3b8" font-size="10" font-family="monospace" text-anchor="middle">RELAY</text>
<text x="133" y="192.79999999999998" fill="#64748b" font-size="9" font-family="monospace" text-anchor="middle">empty</text>
<circle cx="218" cy="115" r="9" fill="#6b7280" stroke="#0b1020" stroke-width="2"/>
<text x="218" y="102" fill="#94a3b8" font-size="10" font-family="monospace" text-anchor="middle">NEXUS</text>
<text x="218" y="135" fill="#64748b" font-size="9" font-family="monospace" text-anchor="middle">nebula</text>
<circle cx="320" cy="57.2" r="9" fill="#ef4444" stroke="#0b1020" stroke-width="2"/>
<text x="320" y="44.2" fill="#94a3b8" font-size="10" font-family="monospace" text-anchor="middle">OUTPOST</text>
<text x="320" y="77.2" fill="#64748b" font-size="9" font-family="monospace" text-anchor="middle">asteroid</text>
<circle cx="337" cy="172.79999999999998" r="9" fill="#ef4444" stroke="#0b1020" stroke-width="2"/>
<text x="337" y="159.79999999999998" fill="#94a3b8" font-size="10" font-family="monospace" text-anchor="middle">BASTION</text>
<rect x="42" y="109" width="12" height="12" rx="2" fill="#3b82f6" stroke="#e2e8f0" stroke-width="1.5"/>
<text x="58" y="119" fill="#e2e8f0" font-size="10" font-family="monospace">BLUE·3</text>
<rect x="331" y="166.79999999999998" width="12" height="12" rx="2" fill="#ef4444" stroke="#e2e8f0" stroke-width="1.5"/>
<text x="347" y="176.79999999999998" fill="#e2e8f0" font-size="10" font-family="monospace">RED·2</text>
</g>
<g transform="translate(420,44)">
<rect width="392" height="208" rx="8" fill="#0b1020" stroke="#26304d"/>
<text x="12" y="22" fill="#cbd5e1" font-size="14" font-family="monospace">t = 8h</text>
<line x1="48" y1="115" x2="133" y2="57.2" stroke="#26304d" stroke-width="2"/>
<line x1="48" y1="115" x2="133" y2="172.79999999999998" stroke="#26304d" stroke-width="2"/>
<line x1="133" y1="57.2" x2="218" y2="115" stroke="#26304d" stroke-width="2"/>
<line x1="133" y1="172.79999999999998" x2="218" y2="115" stroke="#26304d" stroke-width="2"/>
<line x1="218" y1="115" x2="337" y2="172.79999999999998" stroke="#26304d" stroke-width="2"/>
<line x1="218" y1="115" x2="320" y2="57.2" stroke="#26304d" stroke-width="2"/>
<line x1="320" y1="57.2" x2="337" y2="172.79999999999998" stroke="#26304d" stroke-width="2"/>
<circle cx="48" cy="115" r="9" fill="#3b82f6" stroke="#0b1020" stroke-width="2"/>
<text x="48" y="102" fill="#94a3b8" font-size="10" font-family="monospace" text-anchor="middle">HOME</text>
<text x="48" y="135" fill="#64748b" font-size="9" font-family="monospace" text-anchor="middle">empty</text>
<circle cx="133" cy="57.2" r="9" fill="#6b7280" stroke="#0b1020" stroke-width="2"/>
<text x="133" y="44.2" fill="#94a3b8" font-size="10" font-family="monospace" text-anchor="middle">FORGE</text>
<text x="133" y="77.2" fill="#64748b" font-size="9" font-family="monospace" text-anchor="middle">asteroid</text>
<circle cx="133" cy="172.79999999999998" r="9" fill="#6b7280" stroke="#0b1020" stroke-width="2"/>
<text x="133" y="159.79999999999998" fill="#94a3b8" font-size="10" font-family="monospace" text-anchor="middle">RELAY</text>
<text x="133" y="192.79999999999998" fill="#64748b" font-size="9" font-family="monospace" text-anchor="middle">empty</text>
<circle cx="218" cy="115" r="9" fill="#6b7280" stroke="#0b1020" stroke-width="2"/>
<text x="218" y="102" fill="#94a3b8" font-size="10" font-family="monospace" text-anchor="middle">NEXUS</text>
<text x="218" y="135" fill="#64748b" font-size="9" font-family="monospace" text-anchor="middle">nebula</text>
<circle cx="320" cy="57.2" r="9" fill="#ef4444" stroke="#0b1020" stroke-width="2"/>
<text x="320" y="44.2" fill="#94a3b8" font-size="10" font-family="monospace" text-anchor="middle">OUTPOST</text>
<text x="320" y="77.2" fill="#64748b" font-size="9" font-family="monospace" text-anchor="middle">asteroid</text>
<circle cx="337" cy="172.79999999999998" r="9" fill="#ef4444" stroke="#0b1020" stroke-width="2"/>
<text x="337" y="159.79999999999998" fill="#94a3b8" font-size="10" font-family="monospace" text-anchor="middle">BASTION</text>
<rect x="126.34650321109189" y="51.64437781645752" width="12" height="12" rx="2" fill="#3b82f6" stroke="#e2e8f0" stroke-width="1.5"/>
<text x="142.34650321109189" y="61.64437781645752" fill="#e2e8f0" font-size="10" font-family="monospace">BLUE·3</text>
<rect x="220.9002013902979" y="113.32295496100183" width="12" height="12" rx="2" fill="#ef4444" stroke="#e2e8f0" stroke-width="1.5"/>
<text x="236.9002013902979" y="123.32295496100183" fill="#e2e8f0" font-size="10" font-family="monospace">RED·2</text>
</g>
<g transform="translate(12,268)">
<rect width="392" height="208" rx="8" fill="#0b1020" stroke="#26304d"/>
<text x="12" y="22" fill="#cbd5e1" font-size="14" font-family="monospace">t = 12h</text>
<line x1="48" y1="115" x2="133" y2="57.2" stroke="#26304d" stroke-width="2"/>
<line x1="48" y1="115" x2="133" y2="172.79999999999998" stroke="#26304d" stroke-width="2"/>
<line x1="133" y1="57.2" x2="218" y2="115" stroke="#26304d" stroke-width="2"/>
<line x1="133" y1="172.79999999999998" x2="218" y2="115" stroke="#26304d" stroke-width="2"/>
<line x1="218" y1="115" x2="337" y2="172.79999999999998" stroke="#26304d" stroke-width="2"/>
<line x1="218" y1="115" x2="320" y2="57.2" stroke="#26304d" stroke-width="2"/>
<line x1="320" y1="57.2" x2="337" y2="172.79999999999998" stroke="#26304d" stroke-width="2"/>
<circle cx="48" cy="115" r="9" fill="#3b82f6" stroke="#0b1020" stroke-width="2"/>
<text x="48" y="102" fill="#94a3b8" font-size="10" font-family="monospace" text-anchor="middle">HOME</text>
<text x="48" y="135" fill="#64748b" font-size="9" font-family="monospace" text-anchor="middle">empty</text>
<circle cx="133" cy="57.2" r="9" fill="#6b7280" stroke="#0b1020" stroke-width="2"/>
<text x="133" y="44.2" fill="#94a3b8" font-size="10" font-family="monospace" text-anchor="middle">FORGE</text>
<text x="133" y="77.2" fill="#64748b" font-size="9" font-family="monospace" text-anchor="middle">asteroid</text>
<circle cx="133" cy="172.79999999999998" r="9" fill="#6b7280" stroke="#0b1020" stroke-width="2"/>
<text x="133" y="159.79999999999998" fill="#94a3b8" font-size="10" font-family="monospace" text-anchor="middle">RELAY</text>
<text x="133" y="192.79999999999998" fill="#64748b" font-size="9" font-family="monospace" text-anchor="middle">empty</text>
<circle cx="218" cy="115" r="9" fill="#6b7280" stroke="#0b1020" stroke-width="2"/>
<text x="218" y="102" fill="#94a3b8" font-size="10" font-family="monospace" text-anchor="middle">NEXUS</text>
<text x="218" y="135" fill="#64748b" font-size="9" font-family="monospace" text-anchor="middle">nebula</text>
<circle cx="320" cy="57.2" r="9" fill="#ef4444" stroke="#0b1020" stroke-width="2"/>
<text x="320" y="44.2" fill="#94a3b8" font-size="10" font-family="monospace" text-anchor="middle">OUTPOST</text>
<text x="320" y="77.2" fill="#64748b" font-size="9" font-family="monospace" text-anchor="middle">asteroid</text>
<circle cx="337" cy="172.79999999999998" r="9" fill="#ef4444" stroke="#0b1020" stroke-width="2"/>
<text x="337" y="159.79999999999998" fill="#94a3b8" font-size="10" font-family="monospace" text-anchor="middle">BASTION</text>
<rect x="176.82370577996537" y="85.08011993037644" width="12" height="12" rx="2" fill="#3b82f6" stroke="#e2e8f0" stroke-width="1.5"/>
<text x="192.82370577996537" y="95.08011993037644" fill="#e2e8f0" font-size="10" font-family="monospace">BLUE·3</text>
<rect x="212" y="109" width="12" height="12" rx="2" fill="#ef4444" stroke="#e2e8f0" stroke-width="1.5"/>
<text x="228" y="119" fill="#e2e8f0" font-size="10" font-family="monospace">RED·2</text>
</g>
<g transform="translate(420,268)">
<rect width="392" height="208" rx="8" fill="#0b1020" stroke="#26304d"/>
<text x="12" y="22" fill="#cbd5e1" font-size="14" font-family="monospace">t = 16h</text>
<line x1="48" y1="115" x2="133" y2="57.2" stroke="#26304d" stroke-width="2"/>
<line x1="48" y1="115" x2="133" y2="172.79999999999998" stroke="#26304d" stroke-width="2"/>
<line x1="133" y1="57.2" x2="218" y2="115" stroke="#26304d" stroke-width="2"/>
<line x1="133" y1="172.79999999999998" x2="218" y2="115" stroke="#26304d" stroke-width="2"/>
<line x1="218" y1="115" x2="337" y2="172.79999999999998" stroke="#26304d" stroke-width="2"/>
<line x1="218" y1="115" x2="320" y2="57.2" stroke="#26304d" stroke-width="2"/>
<line x1="320" y1="57.2" x2="337" y2="172.79999999999998" stroke="#26304d" stroke-width="2"/>
<circle cx="218" cy="115" r="16" fill="#f59e0b" opacity="0.35"/>
<circle cx="48" cy="115" r="9" fill="#3b82f6" stroke="#0b1020" stroke-width="2"/>
<text x="48" y="102" fill="#94a3b8" font-size="10" font-family="monospace" text-anchor="middle">HOME</text>
<text x="48" y="135" fill="#64748b" font-size="9" font-family="monospace" text-anchor="middle">empty</text>
<circle cx="133" cy="57.2" r="9" fill="#6b7280" stroke="#0b1020" stroke-width="2"/>
<text x="133" y="44.2" fill="#94a3b8" font-size="10" font-family="monospace" text-anchor="middle">FORGE</text>
<text x="133" y="77.2" fill="#64748b" font-size="9" font-family="monospace" text-anchor="middle">asteroid</text>
<circle cx="133" cy="172.79999999999998" r="9" fill="#6b7280" stroke="#0b1020" stroke-width="2"/>
<text x="133" y="159.79999999999998" fill="#94a3b8" font-size="10" font-family="monospace" text-anchor="middle">RELAY</text>
<text x="133" y="192.79999999999998" fill="#64748b" font-size="9" font-family="monospace" text-anchor="middle">empty</text>
<circle cx="218" cy="115" r="9" fill="#6b7280" stroke="#0b1020" stroke-width="2"/>
<text x="218" y="102" fill="#94a3b8" font-size="10" font-family="monospace" text-anchor="middle">NEXUS</text>
<text x="218" y="135" fill="#64748b" font-size="9" font-family="monospace" text-anchor="middle">nebula</text>
<circle cx="320" cy="57.2" r="9" fill="#ef4444" stroke="#0b1020" stroke-width="2"/>
<text x="320" y="44.2" fill="#94a3b8" font-size="10" font-family="monospace" text-anchor="middle">OUTPOST</text>
<text x="320" y="77.2" fill="#64748b" font-size="9" font-family="monospace" text-anchor="middle">asteroid</text>
<circle cx="337" cy="172.79999999999998" r="9" fill="#ef4444" stroke="#0b1020" stroke-width="2"/>
<text x="337" y="159.79999999999998" fill="#94a3b8" font-size="10" font-family="monospace" text-anchor="middle">BASTION</text>
<rect x="212" y="109" width="12" height="12" rx="2" fill="#3b82f6" stroke="#e2e8f0" stroke-width="1.5"/>
<text x="228" y="119" fill="#e2e8f0" font-size="10" font-family="monospace">BLUE·3</text>
<rect x="212" y="109" width="12" height="12" rx="2" fill="#ef4444" stroke="#e2e8f0" stroke-width="1.5"/>
<text x="228" y="119" fill="#e2e8f0" font-size="10" font-family="monospace">RED·1</text>
</g>
<g transform="translate(12,492)">
<rect width="392" height="208" rx="8" fill="#0b1020" stroke="#26304d"/>
<text x="12" y="22" fill="#cbd5e1" font-size="14" font-family="monospace">t = 22h</text>
<line x1="48" y1="115" x2="133" y2="57.2" stroke="#26304d" stroke-width="2"/>
<line x1="48" y1="115" x2="133" y2="172.79999999999998" stroke="#26304d" stroke-width="2"/>
<line x1="133" y1="57.2" x2="218" y2="115" stroke="#26304d" stroke-width="2"/>
<line x1="133" y1="172.79999999999998" x2="218" y2="115" stroke="#26304d" stroke-width="2"/>
<line x1="218" y1="115" x2="337" y2="172.79999999999998" stroke="#26304d" stroke-width="2"/>
<line x1="218" y1="115" x2="320" y2="57.2" stroke="#26304d" stroke-width="2"/>
<line x1="320" y1="57.2" x2="337" y2="172.79999999999998" stroke="#26304d" stroke-width="2"/>
<circle cx="48" cy="115" r="9" fill="#3b82f6" stroke="#0b1020" stroke-width="2"/>
<text x="48" y="102" fill="#94a3b8" font-size="10" font-family="monospace" text-anchor="middle">HOME</text>
<text x="48" y="135" fill="#64748b" font-size="9" font-family="monospace" text-anchor="middle">empty</text>
<circle cx="133" cy="57.2" r="9" fill="#6b7280" stroke="#0b1020" stroke-width="2"/>
<text x="133" y="44.2" fill="#94a3b8" font-size="10" font-family="monospace" text-anchor="middle">FORGE</text>
<text x="133" y="77.2" fill="#64748b" font-size="9" font-family="monospace" text-anchor="middle">asteroid</text>
<circle cx="133" cy="172.79999999999998" r="9" fill="#6b7280" stroke="#0b1020" stroke-width="2"/>
<text x="133" y="159.79999999999998" fill="#94a3b8" font-size="10" font-family="monospace" text-anchor="middle">RELAY</text>
<text x="133" y="192.79999999999998" fill="#64748b" font-size="9" font-family="monospace" text-anchor="middle">empty</text>
<circle cx="218" cy="115" r="9" fill="#3b82f6" stroke="#0b1020" stroke-width="2"/>
<text x="218" y="102" fill="#94a3b8" font-size="10" font-family="monospace" text-anchor="middle">NEXUS</text>
<text x="218" y="135" fill="#64748b" font-size="9" font-family="monospace" text-anchor="middle">nebula</text>
<circle cx="320" cy="57.2" r="9" fill="#ef4444" stroke="#0b1020" stroke-width="2"/>
<text x="320" y="44.2" fill="#94a3b8" font-size="10" font-family="monospace" text-anchor="middle">OUTPOST</text>
<text x="320" y="77.2" fill="#64748b" font-size="9" font-family="monospace" text-anchor="middle">asteroid</text>
<circle cx="337" cy="172.79999999999998" r="9" fill="#ef4444" stroke="#0b1020" stroke-width="2"/>
<text x="337" y="159.79999999999998" fill="#94a3b8" font-size="10" font-family="monospace" text-anchor="middle">BASTION</text>
<rect x="273.16655478316784" y="138.7094694661101" width="12" height="12" rx="2" fill="#3b82f6" stroke="#e2e8f0" stroke-width="1.5"/>
<text x="289.16655478316784" y="148.7094694661101" fill="#e2e8f0" font-size="10" font-family="monospace">BLUE·3</text>
</g>
<g transform="translate(420,492)">
<rect width="392" height="208" rx="8" fill="#0b1020" stroke="#26304d"/>
<text x="12" y="22" fill="#cbd5e1" font-size="14" font-family="monospace">t = 32h</text>
<line x1="48" y1="115" x2="133" y2="57.2" stroke="#26304d" stroke-width="2"/>
<line x1="48" y1="115" x2="133" y2="172.79999999999998" stroke="#26304d" stroke-width="2"/>
<line x1="133" y1="57.2" x2="218" y2="115" stroke="#26304d" stroke-width="2"/>
<line x1="133" y1="172.79999999999998" x2="218" y2="115" stroke="#26304d" stroke-width="2"/>
<line x1="218" y1="115" x2="337" y2="172.79999999999998" stroke="#26304d" stroke-width="2"/>
<line x1="218" y1="115" x2="320" y2="57.2" stroke="#26304d" stroke-width="2"/>
<line x1="320" y1="57.2" x2="337" y2="172.79999999999998" stroke="#26304d" stroke-width="2"/>
<circle cx="48" cy="115" r="9" fill="#3b82f6" stroke="#0b1020" stroke-width="2"/>
<text x="48" y="102" fill="#94a3b8" font-size="10" font-family="monospace" text-anchor="middle">HOME</text>
<text x="48" y="135" fill="#64748b" font-size="9" font-family="monospace" text-anchor="middle">empty</text>
<circle cx="133" cy="57.2" r="9" fill="#6b7280" stroke="#0b1020" stroke-width="2"/>
<text x="133" y="44.2" fill="#94a3b8" font-size="10" font-family="monospace" text-anchor="middle">FORGE</text>
<text x="133" y="77.2" fill="#64748b" font-size="9" font-family="monospace" text-anchor="middle">asteroid</text>
<circle cx="133" cy="172.79999999999998" r="9" fill="#6b7280" stroke="#0b1020" stroke-width="2"/>
<text x="133" y="159.79999999999998" fill="#94a3b8" font-size="10" font-family="monospace" text-anchor="middle">RELAY</text>
<text x="133" y="192.79999999999998" fill="#64748b" font-size="9" font-family="monospace" text-anchor="middle">empty</text>
<circle cx="218" cy="115" r="9" fill="#3b82f6" stroke="#0b1020" stroke-width="2"/>
<text x="218" y="102" fill="#94a3b8" font-size="10" font-family="monospace" text-anchor="middle">NEXUS</text>
<text x="218" y="135" fill="#64748b" font-size="9" font-family="monospace" text-anchor="middle">nebula</text>
<circle cx="320" cy="57.2" r="9" fill="#ef4444" stroke="#0b1020" stroke-width="2"/>
<text x="320" y="44.2" fill="#94a3b8" font-size="10" font-family="monospace" text-anchor="middle">OUTPOST</text>
<text x="320" y="77.2" fill="#64748b" font-size="9" font-family="monospace" text-anchor="middle">asteroid</text>
<circle cx="337" cy="172.79999999999998" r="9" fill="#3b82f6" stroke="#0b1020" stroke-width="2"/>
<text x="337" y="159.79999999999998" fill="#94a3b8" font-size="10" font-family="monospace" text-anchor="middle">BASTION</text>
<rect x="331" y="166.79999999999998" width="12" height="12" rx="2" fill="#3b82f6" stroke="#e2e8f0" stroke-width="1.5"/>
<text x="347" y="176.79999999999998" fill="#e2e8f0" font-size="10" font-family="monospace">BLUE·3</text>
</g>
</svg>